# Blender v2.90.1 OBJ File: 'SHS 100x3_copy.blend'
# www.blender.org
o SHS_100x3
v 97.000000 500.000000 -8.000001
v 97.000000 0.000001 -8.000001
v 96.829628 500.000000 -6.705906
v 96.829628 0.000001 -6.705906
v 96.330132 500.000000 -5.500001
v 96.330132 0.000001 -5.500001
v 95.535538 500.000000 -4.464467
v 95.535538 0.000001 -4.464467
v 94.500000 500.000000 -3.669874
v 94.500000 0.000001 -3.669874
v 93.294098 500.000000 -3.170372
v 93.294098 0.000001 -3.170372
v 92.000000 500.000000 -3.000001
v 92.000000 0.000001 -3.000001
v 97.000000 0.000001 -92.000000
v 97.000000 500.000000 -92.000000
v 92.000000 500.000000 -97.000000
v 92.000000 0.000001 -97.000000
v 93.294098 500.000000 -96.829628
v 93.294098 0.000001 -96.829628
v 94.500000 500.000000 -96.330132
v 94.500000 0.000001 -96.330132
v 95.535538 500.000000 -95.535538
v 95.535538 0.000001 -95.535538
v 96.330132 500.000000 -94.500000
v 96.330132 0.000001 -94.500000
v 96.829628 500.000000 -93.294098
v 96.829628 0.000001 -93.294098
v 8.000001 0.000001 -97.000000
v 8.000001 500.000000 -97.000000
v 3.000001 500.000000 -92.000000
v 3.000001 0.000001 -92.000000
v 3.170372 500.000000 -93.294098
v 3.170372 0.000001 -93.294098
v 3.669874 500.000000 -94.500000
v 3.669874 0.000001 -94.500000
v 4.464467 500.000000 -95.535538
v 4.464467 0.000001 -95.535538
v 5.500001 500.000000 -96.330132
v 5.500001 0.000001 -96.330132
v 6.705906 500.000000 -96.829628
v 6.705906 0.000001 -96.829628
v 3.000001 0.000001 -8.000001
v 3.000001 500.000000 -8.000001
v 8.000001 500.000000 -3.000001
v 8.000001 0.000001 -3.000001
v 6.705906 500.000000 -3.170372
v 6.705906 0.000001 -3.170372
v 5.500001 500.000000 -3.669874
v 5.500001 0.000001 -3.669874
v 4.464467 500.000000 -4.464467
v 4.464467 0.000001 -4.464467
v 3.669874 500.000000 -5.500001
v 3.669874 0.000001 -5.500001
v 3.170372 500.000000 -6.705906
v 3.170372 0.000001 -6.705906
v 92.000000 500.000000 -0.000001
v 92.000000 0.000001 -0.000001
v 94.070557 500.000000 -0.272594
v 94.070557 0.000001 -0.272594
v 96.000000 500.000000 -1.071798
v 96.000000 0.000001 -1.071798
v 97.656853 500.000000 -2.343147
v 97.656853 0.000001 -2.343147
v 98.928207 500.000000 -4.000001
v 98.928207 0.000001 -4.000001
v 99.727409 500.000000 -5.929449
v 99.727409 0.000001 -5.929449
v 100.000000 500.000000 -8.000001
v 100.000000 0.000001 -8.000001
v 100.000000 0.000001 -92.000000
v 100.000000 500.000000 -92.000000
v 99.727409 500.000000 -94.070557
v 99.727409 0.000001 -94.070557
v 98.928207 500.000000 -96.000000
v 98.928207 0.000001 -96.000000
v 97.656853 500.000000 -97.656853
v 97.656853 0.000001 -97.656853
v 96.000000 500.000000 -98.928207
v 96.000000 0.000001 -98.928207
v 94.070557 500.000000 -99.727409
v 94.070557 0.000001 -99.727409
v 92.000000 500.000000 -100.000000
v 92.000000 0.000001 -100.000000
v 8.000001 0.000001 -100.000000
v 8.000001 500.000000 -100.000000
v 5.929449 500.000000 -99.727409
v 5.929449 0.000001 -99.727409
v 4.000001 500.000000 -98.928207
v 4.000001 0.000001 -98.928207
v 2.343147 500.000000 -97.656853
v 2.343147 0.000001 -97.656853
v 1.071798 500.000000 -96.000000
v 1.071798 0.000001 -96.000000
v 0.272594 500.000000 -94.070557
v 0.272594 0.000001 -94.070557
v 0.000001 500.000000 -92.000000
v 0.000001 0.000001 -92.000000
v 0.000001 0.000001 -8.000001
v 0.000001 500.000000 -8.000001
v 0.272594 500.000000 -5.929449
v 0.272594 0.000001 -5.929449
v 1.071798 500.000000 -4.000001
v 1.071798 0.000001 -4.000001
v 2.343147 500.000000 -2.343147
v 2.343147 0.000001 -2.343147
v 4.000001 500.000000 -1.071798
v 4.000001 0.000001 -1.071798
v 5.929449 500.000000 -0.272594
v 5.929449 0.000001 -0.272594
v 8.000001 500.000000 -0.000001
v 8.000001 0.000001 -0.000001
vt 0.390404 0.766622
vt 0.390404 0.263082
vt 0.390576 0.766622
vt 0.390576 0.263082
vt 0.391079 0.766622
vt 0.391079 0.263082
vt 0.391879 0.766622
vt 0.391879 0.263082
vt 0.392922 0.766622
vt 0.392922 0.263082
vt 0.394137 0.766622
vt 0.394137 0.263082
vt 0.395440 0.766622
vt 0.395440 0.263082
vt 0.390404 0.263082
vt 0.390404 0.766622
vt 0.395440 0.766622
vt 0.395440 0.263082
vt 0.394137 0.766622
vt 0.394137 0.263082
vt 0.392922 0.766622
vt 0.392922 0.263082
vt 0.391879 0.766622
vt 0.391879 0.263082
vt 0.391079 0.766622
vt 0.391079 0.263082
vt 0.390576 0.766622
vt 0.390576 0.263082
vt 0.480035 0.263082
vt 0.480035 0.766622
vt 0.485070 0.766622
vt 0.485070 0.263082
vt 0.484898 0.766622
vt 0.484898 0.263082
vt 0.484395 0.766622
vt 0.484395 0.263082
vt 0.483595 0.766622
vt 0.483595 0.263082
vt 0.482552 0.766622
vt 0.482552 0.263082
vt 0.481338 0.766622
vt 0.481338 0.263082
vt 0.485070 0.263082
vt 0.485070 0.766622
vt 0.480035 0.766622
vt 0.480035 0.263082
vt 0.481338 0.766622
vt 0.481338 0.263082
vt 0.482552 0.766622
vt 0.482552 0.263082
vt 0.483595 0.766622
vt 0.483595 0.263082
vt 0.484395 0.766622
vt 0.484395 0.263082
vt 0.484898 0.766622
vt 0.484898 0.263082
vt 0.395440 0.766622
vt 0.395440 0.263082
vt 0.393355 0.766622
vt 0.393355 0.263082
vt 0.391412 0.766622
vt 0.391412 0.263082
vt 0.389743 0.766622
vt 0.389743 0.263082
vt 0.388463 0.766622
vt 0.388463 0.263082
vt 0.387658 0.766622
vt 0.387658 0.263082
vt 0.387383 0.766622
vt 0.387383 0.263082
vt 0.000041 0.999959
vt 0.000041 0.000041
vt 0.168027 0.999959
vt 0.168027 0.000041
vt 0.387383 0.766622
vt 0.387383 0.263082
vt 0.387658 0.766622
vt 0.387658 0.263082
vt 0.388463 0.766622
vt 0.388463 0.263082
vt 0.389743 0.766622
vt 0.389743 0.263082
vt 0.391412 0.766622
vt 0.391412 0.263082
vt 0.393355 0.766622
vt 0.393355 0.263082
vt 0.395440 0.766622
vt 0.395440 0.263082
vt 0.497708 0.011288
vt 0.497708 0.988886
vt 0.333472 0.011288
vt 0.333472 0.988886
vt 0.480035 0.766622
vt 0.480035 0.263082
vt 0.482120 0.766622
vt 0.482120 0.263082
vt 0.484063 0.766622
vt 0.484063 0.263082
vt 0.485732 0.766622
vt 0.485732 0.263082
vt 0.487012 0.766622
vt 0.487012 0.263082
vt 0.487817 0.766622
vt 0.487817 0.263082
vt 0.488091 0.766622
vt 0.488091 0.263082
vt 0.000041 0.999959
vt 0.000041 0.000041
vt 0.168027 0.999959
vt 0.168027 0.000041
vt 0.488091 0.766622
vt 0.488091 0.263082
vt 0.487817 0.766622
vt 0.487817 0.263082
vt 0.487012 0.766622
vt 0.487012 0.263082
vt 0.485732 0.766622
vt 0.485732 0.263082
vt 0.484063 0.766622
vt 0.484063 0.263082
vt 0.482120 0.766622
vt 0.482120 0.263082
vt 0.480035 0.766622
vt 0.480035 0.263082
vt 0.000041 0.999959
vt 0.000041 0.000041
vt 0.168027 0.999959
vt 0.168027 0.000041
vt 0.347901 0.980847
vt 0.326533 0.980847
vt 0.326533 0.980847
vn -0.9914 0.0000 -0.1305
vn -0.9239 0.0000 -0.3827
vn -0.7934 0.0000 -0.6088
vn -0.6088 0.0000 -0.7934
vn -0.3827 0.0000 -0.9239
vn -0.1305 0.0000 -0.9914
vn -1.0000 0.0000 0.0000
vn -0.1305 0.0000 0.9914
vn -0.3827 0.0000 0.9239
vn -0.6088 0.0000 0.7933
vn -0.6088 0.0000 0.7934
vn -0.7934 0.0000 0.6088
vn -0.9239 0.0000 0.3827
vn -0.9914 0.0000 0.1305
vn 0.0000 0.0000 1.0000
vn 0.9914 0.0000 0.1305
vn 0.9239 0.0000 0.3827
vn 0.7934 0.0000 0.6088
vn 0.6088 0.0000 0.7934
vn 0.6088 0.0000 0.7933
vn 0.3827 0.0000 0.9239
vn 0.1305 0.0000 0.9914
vn 1.0000 0.0000 0.0000
vn 0.1305 0.0000 -0.9914
vn 0.3827 0.0000 -0.9239
vn 0.6088 0.0000 -0.7934
vn 0.7934 0.0000 -0.6088
vn 0.9239 0.0000 -0.3827
vn 0.9914 0.0000 -0.1305
vn 0.0000 0.0000 -1.0000
vn 0.6088 0.0000 -0.7933
vn -0.6088 0.0000 -0.7933
vn 0.0000 -1.0000 0.0000
vn 0.0000 1.0000 0.0001
vn 0.0000 1.0000 -0.0000
vn 0.0000 1.0000 -0.0001
s off
f 1/1/1 2/2/1 3/3/1
f 3/3/1 2/2/1 4/4/1
f 3/3/2 4/4/2 5/5/2
f 5/5/2 4/4/2 6/6/2
f 5/5/3 6/6/3 7/7/3
f 7/7/3 6/6/3 8/8/3
f 7/7/4 8/8/4 9/9/4
f 9/9/4 8/8/4 10/10/4
f 9/9/5 10/10/5 11/11/5
f 11/11/5 10/10/5 12/12/5
f 11/11/6 12/12/6 13/13/6
f 13/13/6 12/12/6 14/14/6
f 2/2/7 1/1/7 15/15/7
f 15/15/7 1/1/7 16/16/7
f 17/17/8 18/18/8 19/19/8
f 19/19/8 18/18/8 20/20/8
f 19/19/9 20/20/9 21/21/9
f 21/21/9 20/20/9 22/22/9
f 21/21/10 22/22/10 23/23/10
f 23/23/11 22/22/11 24/24/11
f 23/23/12 24/24/12 25/25/12
f 25/25/12 24/24/12 26/26/12
f 25/25/13 26/26/13 27/27/13
f 27/27/13 26/26/13 28/28/13
f 27/27/14 28/28/14 16/16/14
f 16/16/14 28/28/14 15/15/14
f 18/18/15 17/17/15 29/29/15
f 29/29/15 17/17/15 30/30/15
f 31/31/16 32/32/16 33/33/16
f 33/33/16 32/32/16 34/34/16
f 33/33/17 34/34/17 35/35/17
f 35/35/17 34/34/17 36/36/17
f 35/35/18 36/36/18 37/37/18
f 37/37/18 36/36/18 38/38/18
f 37/37/19 38/38/19 39/39/19
f 39/39/20 38/38/20 40/40/20
f 39/39/21 40/40/21 41/41/21
f 41/41/21 40/40/21 42/42/21
f 41/41/22 42/42/22 30/30/22
f 30/30/22 42/42/22 29/29/22
f 32/32/23 31/31/23 43/43/23
f 43/43/23 31/31/23 44/44/23
f 45/45/24 46/46/24 47/47/24
f 47/47/24 46/46/24 48/48/24
f 47/47/25 48/48/25 49/49/25
f 49/49/25 48/48/25 50/50/25
f 49/49/26 50/50/26 51/51/26
f 51/51/26 50/50/26 52/52/26
f 51/51/27 52/52/27 53/53/27
f 53/53/27 52/52/27 54/54/27
f 53/53/28 54/54/28 55/55/28
f 55/55/28 54/54/28 56/56/28
f 55/55/29 56/56/29 44/44/29
f 44/44/29 56/56/29 43/43/29
f 46/46/30 45/45/30 14/14/30
f 14/14/30 45/45/30 13/13/30
f 57/57/22 58/58/22 59/59/22
f 59/59/22 58/58/22 60/60/22
f 59/59/21 60/60/21 61/61/21
f 61/61/21 60/60/21 62/62/21
f 61/61/19 62/62/19 63/63/19
f 63/63/19 62/62/19 64/64/19
f 63/63/18 64/64/18 65/65/18
f 65/65/18 64/64/18 66/66/18
f 65/65/17 66/66/17 67/67/17
f 67/67/17 66/66/17 68/68/17
f 67/67/16 68/68/16 69/69/16
f 69/69/16 68/68/16 70/70/16
f 71/71/23 72/72/23 70/73/23
f 70/73/23 72/72/23 69/74/23
f 72/75/29 71/76/29 73/77/29
f 73/77/29 71/76/29 74/78/29
f 73/77/28 74/78/28 75/79/28
f 75/79/28 74/78/28 76/80/28
f 75/79/27 76/80/27 77/81/27
f 77/81/27 76/80/27 78/82/27
f 77/81/26 78/82/26 79/83/26
f 79/83/31 78/82/31 80/84/31
f 79/83/25 80/84/25 81/85/25
f 81/85/25 80/84/25 82/86/25
f 81/85/24 82/86/24 83/87/24
f 83/87/24 82/86/24 84/88/24
f 85/89/30 86/90/30 84/91/30
f 84/91/30 86/90/30 83/92/30
f 86/93/6 85/94/6 87/95/6
f 87/95/6 85/94/6 88/96/6
f 87/95/5 88/96/5 89/97/5
f 89/97/5 88/96/5 90/98/5
f 89/97/32 90/98/32 91/99/32
f 91/99/4 90/98/4 92/100/4
f 91/99/3 92/100/3 93/101/3
f 93/101/3 92/100/3 94/102/3
f 93/101/2 94/102/2 95/103/2
f 95/103/2 94/102/2 96/104/2
f 95/103/1 96/104/1 97/105/1
f 97/105/1 96/104/1 98/106/1
f 99/107/7 100/108/7 98/109/7
f 98/109/7 100/108/7 97/110/7
f 100/111/14 99/112/14 101/113/14
f 101/113/14 99/112/14 102/114/14
f 101/113/13 102/114/13 103/115/13
f 103/115/13 102/114/13 104/116/13
f 103/115/12 104/116/12 105/117/12
f 105/117/12 104/116/12 106/118/12
f 105/117/11 106/118/11 107/119/11
f 107/119/11 106/118/11 108/120/11
f 107/119/9 108/120/9 109/121/9
f 109/121/9 108/120/9 110/122/9
f 109/121/8 110/122/8 111/123/8
f 111/123/8 110/122/8 112/124/8
f 58/125/15 57/126/15 112/127/15
f 112/127/15 57/126/15 111/128/15
f 12/12/33 60/60/33 14/14/33
f 14/14/33 60/60/33 58/58/33
f 14/14/33 58/58/33 112/124/33
f 60/60/33 12/12/33 62/62/33
f 62/62/33 12/12/33 10/10/33
f 62/62/33 10/10/33 64/64/33
f 64/64/33 10/10/33 8/8/33
f 64/64/33 8/8/33 66/66/33
f 66/66/33 8/8/33 6/6/33
f 66/66/33 6/6/33 68/68/33
f 68/68/33 6/6/33 4/4/33
f 68/68/33 4/4/33 70/70/33
f 70/70/33 4/4/33 2/2/33
f 70/70/33 2/2/33 71/76/33
f 71/76/33 2/2/33 15/15/33
f 71/76/33 15/15/33 28/28/33
f 71/76/33 28/28/33 74/78/33
f 74/78/33 28/28/33 26/26/33
f 74/78/33 26/26/33 76/80/33
f 76/80/33 26/26/33 24/24/33
f 76/80/33 24/24/33 78/82/33
f 78/82/33 24/24/33 22/22/33
f 78/82/33 22/22/33 80/84/33
f 80/84/33 22/22/33 20/20/33
f 80/84/33 20/20/33 82/86/33
f 82/86/33 20/20/33 18/18/33
f 82/86/33 18/18/33 84/88/33
f 84/88/33 18/18/33 29/29/33
f 84/88/33 29/29/33 85/94/33
f 85/94/33 29/29/33 88/96/33
f 88/96/33 29/29/33 42/42/33
f 88/96/33 42/42/33 90/98/33
f 90/98/33 42/42/33 40/40/33
f 90/98/33 40/40/33 92/100/33
f 92/100/33 40/40/33 38/38/33
f 92/100/33 38/38/33 94/102/33
f 94/102/33 38/38/33 36/36/33
f 94/102/33 36/36/33 96/104/33
f 96/104/33 36/36/33 34/34/33
f 96/104/33 34/34/33 98/106/33
f 98/106/33 34/34/33 32/32/33
f 98/106/33 32/32/33 99/112/33
f 99/112/33 32/32/33 43/43/33
f 99/112/33 43/43/33 102/114/33
f 102/114/33 43/43/33 56/56/33
f 102/114/33 56/56/33 54/54/33
f 102/114/33 54/54/33 104/116/33
f 104/116/33 54/54/33 52/52/33
f 104/116/33 52/52/33 106/118/33
f 106/118/33 52/52/33 50/50/33
f 106/118/33 50/50/33 108/120/33
f 108/120/33 50/50/33 48/48/33
f 108/120/33 48/48/33 110/122/33
f 110/122/33 48/48/33 46/46/33
f 110/122/33 46/46/33 112/124/33
f 112/124/33 46/46/33 14/14/33
f 3/3/34 67/67/34 1/1/34
f 1/1/35 67/67/35 69/69/35
f 1/1/35 69/69/35 16/16/35
f 16/129/35 69/130/35 72/131/35
f 16/16/35 72/75/35 27/27/35
f 27/27/35 72/75/35 73/77/35
f 27/27/35 73/77/35 25/25/35
f 25/25/35 73/77/35 75/79/35
f 25/25/35 75/79/35 23/23/35
f 23/23/35 75/79/35 77/81/35
f 23/23/34 77/81/34 21/21/34
f 21/21/35 77/81/35 79/83/35
f 21/21/35 79/83/35 19/19/35
f 19/19/35 79/83/35 81/85/35
f 19/19/35 81/85/35 17/17/35
f 17/17/35 81/85/35 83/87/35
f 17/17/35 83/87/35 86/93/35
f 3/3/35 5/5/35 67/67/35
f 67/67/35 5/5/35 65/65/35
f 65/65/35 5/5/35 7/7/35
f 65/65/35 7/7/35 63/63/35
f 63/63/35 7/7/35 9/9/35
f 63/63/35 9/9/35 61/61/35
f 61/61/35 9/9/35 11/11/35
f 61/61/35 11/11/35 59/59/35
f 59/59/35 11/11/35 13/13/35
f 59/59/35 13/13/35 57/57/35
f 57/57/35 13/13/35 45/45/35
f 57/57/35 45/45/35 111/123/35
f 111/123/35 45/45/35 109/121/35
f 109/121/35 45/45/35 47/47/35
f 109/121/35 47/47/35 107/119/35
f 107/119/35 47/47/35 49/49/35
f 107/119/35 49/49/35 105/117/35
f 105/117/35 49/49/35 51/51/35
f 105/117/35 51/51/35 103/115/35
f 103/115/34 51/51/34 53/53/34
f 103/115/35 53/53/35 101/113/35
f 101/113/35 53/53/35 55/55/35
f 101/113/35 55/55/35 100/111/35
f 100/111/35 55/55/35 44/44/35
f 100/111/35 44/44/35 97/105/35
f 97/105/35 44/44/35 31/31/35
f 97/105/35 31/31/35 33/33/35
f 97/105/35 33/33/35 95/103/35
f 95/103/35 33/33/35 35/35/35
f 95/103/35 35/35/35 93/101/35
f 93/101/36 35/35/36 37/37/36
f 93/101/35 37/37/35 91/99/35
f 91/99/35 37/37/35 39/39/35
f 91/99/35 39/39/35 89/97/35
f 89/97/35 39/39/35 41/41/35
f 89/97/35 41/41/35 87/95/35
f 87/95/35 41/41/35 30/30/35
f 87/95/35 30/30/35 86/93/35
f 86/93/35 30/30/35 17/17/35
